# xmcd CD database file
#
# Track frame offsets:
#	150
#	13030
#	26530
#	38992
#	53690
#	68212
#	84890
#	99117
#	112020
#	126060
#	138907
#	153435
#	166085
#	180525
#	194915
#	207675
#	221687
#	234767
#	247475
#	260822
#	275307
#	288207
#	300430
#	311352
#	325025
#
# Disc length: 4505 seconds
#
# Revision: 0
# Processed by: cddbd v1.5.2PL0 Copyright (c) Steve Scherf et al.
# Submitted via: CDex 1.70beta2
#
DISCID=5f119719
DTITLE=Various Artist - The Story of Pre-War Blues Disc 2
DYEAR=1900
DGENRE=Blues
TTITLE0=Dallas Rag
TTITLE1=Down With The Blues
TTITLE2=John Henry
TTITLE3=What Are They Doing In Heaven Today ?
TTITLE4=Jesus Make Up My Dying Bad
TTITLE5=Black Gal What Makes Your Head So Hard ?
TTITLE6=Range In My Kitchen Blues
TTITLE7=See That My Grave Is Kept Clean
TTITLE8=Hungry Wolf
TTITLE9=Ramblin' Mind Blues
TTITLE10=Lone Wolf Blues
TTITLE11=Black Ace
TTITLE12=Poor Boy,Long Ways From Home
TTITLE13=Jim Jackson's Jamboree
TTITLE14=You Shall
TTITLE15=Kassie Jones - Part 1
TTITLE16=That's No Ways To Get Along
TTITLE17=Highway No.61 Blues
TTITLE18=Like Michigan Blues
TTITLE19=Divin' Duck Blues
TTITLE20=Let Me Squeeze Your Lemon
TTITLE21=Sweet Man Blues
TTITLE22=I Don't Want That Junk Outa You
TTITLE23=Moanin' The Blues
TTITLE24=Memphis Shakedown
EXTD=
EXTT0=
EXTT1=
EXTT2=
EXTT3=
EXTT4=
EXTT5=
EXTT6=
EXTT7=
EXTT8=
EXTT9=
EXTT10=
EXTT11=
EXTT12=
EXTT13=
EXTT14=
EXTT15=
EXTT16=
EXTT17=
EXTT18=
EXTT19=
EXTT20=
EXTT21=
EXTT22=
EXTT23=
EXTT24=
PLAYORDER=
